# xmcd
#
# Track frame offsets: 
#        150
#        10367
#        31317
#        43445
#        59235
#        71092
#        85335
#        94580
#        109779
#        128292
#
# Disc length: 1925 seconds
#
# Revision: 4
# Processed by: cddbd v1.5PL3 Copyright (c) Steve Scherf et al.
# Submitted via: ExactAudioCopy v0.95a5
#
DISCID=8807830a
DTITLE=Various Artist - Country Christmas
DYEAR=1995
DGENRE=Christmas
TTITLE0=Alan Jackson - A Holly Jolly Christmas
TTITLE1=Vince Gill - Do You Hear What I Hear
TTITLE2=Trisha Yearwood - Away In A Manger
TTITLE3=Suzy Bogguss - The First Noel
TTITLE4=Randy Travis - Pretty Paper
TTITLE5=George Strait - When It's Christmas Time In Texas
TTITLE6=Sammy Kershaw - Winter Wonderland
TTITLE7=John Berry - O Come, O Come Emmanuel
TTITLE8=Tanya Tucker - What Child Is This
TTITLE9=Reba McEntire - Silent Night
EXTD=
EXTT0=
EXTT1=
EXTT2=
EXTT3=
EXTT4=
EXTT5=
EXTT6=
EXTT7=
EXTT8=
EXTT9=
PLAYORDER=
